<svg width="32" height="26" viewBox="0 0 32 26" fill="none" xmlns="http://www.w3.org/2000/svg">
<path d="M21.0909 24.3283V21.7828C21.0909 20.4326 20.5545 19.1377 19.5998 18.183C18.6451 17.2283 17.3502 16.6919 16 16.6919H7.09091C5.74072 16.6919 4.44582 17.2283 3.49109 18.183C2.53636 19.1377 2 20.4326 2 21.7828V24.3283" stroke="black" stroke-width="2.36364" stroke-linecap="round" stroke-linejoin="round"/>
<path d="M11.5454 11.6013C14.3571 11.6013 16.6363 9.32197 16.6363 6.51034C16.6363 3.69871 14.3571 1.41943 11.5454 1.41943C8.73381 1.41943 6.45453 3.69871 6.45453 6.51034C6.45453 9.32197 8.73381 11.6013 11.5454 11.6013Z" stroke="black" stroke-width="2.36364" stroke-linecap="round" stroke-linejoin="round"/>
<path d="M22.3636 11.6011L24.909 14.1466L29.9999 9.05566" stroke="black" stroke-width="2.36364" stroke-linecap="round" stroke-linejoin="round"/>
</svg>
