<svg width="35" height="37" viewBox="0 0 35 37" fill="none" xmlns="http://www.w3.org/2000/svg">
<path d="M23.5961 3.01725L23.5969 3.01811C25.1248 4.6624 25.877 6.89521 25.7048 9.30098C25.3486 14.1363 21.6787 17.9819 17.6323 17.9819C13.5855 17.9819 9.90815 14.1358 9.55994 9.30164C9.38736 6.86912 10.1328 4.63664 11.6515 3.00172L11.6516 3.00161C13.1561 1.38083 15.2694 0.482705 17.6323 0.482705C19.9774 0.482705 22.0909 1.38792 23.5961 3.01725Z" fill="white" stroke="white" stroke-width="0.804277"/>
<path d="M32.018 36.2856V36.2855H32.0137H3.25113V36.2855L3.2468 36.2856C2.60797 36.2924 1.99509 36.0107 1.58172 35.5222C1.13373 34.9839 0.94512 34.2409 1.08124 33.4736C1.74733 29.763 3.83819 26.6365 7.13467 24.4388C10.0703 22.4844 13.7992 21.4012 17.6324 21.4012C21.4656 21.4012 25.1945 22.4844 28.1301 24.4388C31.4262 26.6363 33.5094 29.7545 34.1836 33.474C34.3196 34.2412 34.131 34.984 33.683 35.5222C33.2696 36.0107 32.6568 36.2924 32.018 36.2856Z" fill="white" stroke="white" stroke-width="0.804277"/>
</svg>
