<svg xmlns="http://www.w3.org/2000/svg" viewBox="0 0 132 103.13"><defs><style>.cls-1{fill:#fff;}</style></defs><g id="Layer_2" data-name="Layer 2"><g id="Layer_1-2" data-name="Layer 1"><path class="cls-1" d="M97.45,34.55A46.71,46.71,0,0,0,83,22.86a11.89,11.89,0,0,1-6.71-11.17,11.7,11.7,0,0,1,3.1-8.42Q82.5,0,88,0q8.25,0,18.82,8.68T124.7,32.23A71.32,71.32,0,0,1,132,64.11q0,18.56-8.33,28.62t-20.89,10q-11.5,0-19.33-7.13a23.44,23.44,0,0,1-7.82-18.13,24.71,24.71,0,0,1,7.82-18.65q7.81-7.48,17.61-7.48h2.41Q102.78,41.25,97.45,34.55Zm-75.79.08Q16.85,28.2,7.39,22.86.68,19.43.69,11.69a11.86,11.86,0,0,1,3-8.51Q6.7,0,12.38,0q6.18,0,14,5.07A60.55,60.55,0,0,1,41,18.82,74.65,74.65,0,0,1,52.08,39.19a71.75,71.75,0,0,1,4.29,24.92q0,18.39-8.25,28.7t-21,10.32A27.07,27.07,0,0,1,7.82,95.74,24.09,24.09,0,0,1,0,77.52,24.75,24.75,0,0,1,7.82,58.87q7.83-7.48,17.45-7.48H27.5Q26.46,41.09,21.66,34.63Z"/></g></g></svg>